<svg id="Layer_1" data-name="Layer 1" xmlns="http://www.w3.org/2000/svg" xmlns:xlink="http://www.w3.org/1999/xlink" viewBox="0 0 2695.9 2192.76"><defs><style>.cls-1{fill:#606161;}.cls-2{fill:url(#linear-gradient);}.cls-3{fill:#fff;}.cls-4{fill:url(#linear-gradient-2);}.cls-5{fill:url(#linear-gradient-3);}.cls-6{fill:url(#linear-gradient-4);}.cls-7{fill:url(#linear-gradient-5);}.cls-8{fill:url(#linear-gradient-6);}.cls-9{fill:url(#linear-gradient-7);}.cls-10{fill:url(#linear-gradient-8);}.cls-11{fill:url(#linear-gradient-9);}.cls-12{fill:url(#linear-gradient-10);}</style><linearGradient id="linear-gradient" x1="124.71" y1="89.84" x2="476.66" y2="89.84" gradientUnits="userSpaceOnUse"><stop offset="0" stop-color="#f26522"/><stop offset="1" stop-color="#f7941d"/></linearGradient><linearGradient id="linear-gradient-2" x1="0" y1="126.13" x2="166.95" y2="126.13" xlink:href="#linear-gradient"/><linearGradient id="linear-gradient-3" x1="79.53" y1="253.77" x2="90.28" y2="253.77" xlink:href="#linear-gradient"/><linearGradient id="linear-gradient-4" x1="49.76" y1="246.62" x2="81.39" y2="246.62" xlink:href="#linear-gradient"/><linearGradient id="linear-gradient-5" x1="51.52" y1="230.13" x2="67.92" y2="230.13" xlink:href="#linear-gradient"/><linearGradient id="linear-gradient-6" x1="235.99" y1="267.96" x2="246.85" y2="267.96" xlink:href="#linear-gradient"/><linearGradient id="linear-gradient-7" x1="238.78" y1="279.79" x2="251.15" y2="279.79" xlink:href="#linear-gradient"/><linearGradient id="linear-gradient-8" x1="229.07" y1="258.97" x2="236.9" y2="258.97" xlink:href="#linear-gradient"/><linearGradient id="linear-gradient-9" x1="600.72" y1="211.47" x2="612.07" y2="211.47" xlink:href="#linear-gradient"/><linearGradient id="linear-gradient-10" x1="597.38" y1="215.02" x2="600.23" y2="215.02" xlink:href="#linear-gradient"/></defs><title>advert</title><image width="1920" height="1344" transform="translate(775.9 848.76)" xlink:href="../../../Pictures/10-usd-dollar-month-sale-promotion-banner-special-offer-10-dollar-month-price-tag-shop-now-button-business-or-shopping-promotion-marketing-concept-free-vector.jpg"/><rect class="cls-1" x="88.36" y="112.37" width="317.32" height="81.73"/><rect class="cls-2" x="124.71" y="53.54" width="351.95" height="72.59"/><circle class="cls-3" cx="475.98" cy="54.58" r="13.58"/><circle class="cls-4" cx="83.47" cy="126.13" r="83.47"/><circle class="cls-3" cx="83.47" cy="126.13" r="72.59"/><polygon class="cls-5" points="79.53 260.1 90.28 242.83 90.28 264.7 79.53 260.1"/><polygon class="cls-6" points="64.01 260.68 81.39 232.57 49.76 247.99 64.01 260.68"/><polygon class="cls-7" points="55.62 234.52 67.92 225.74 51.52 227.1 55.62 234.52"/><polygon class="cls-1" points="414.38 187.52 439.52 214.12 420.82 223.68 414.38 187.52"/><polygon class="cls-1" points="419.16 164.46 463.83 236.97 493.75 202.9 419.16 164.46"/><polygon class="cls-1" points="430.38 153.24 476.66 178.17 481.91 152 430.38 153.24"/><polygon class="cls-1" points="66.95 16.98 65.31 1.79 57.72 5.36 66.95 16.98"/><polygon class="cls-1" points="57.72 29.35 42.52 0 29.41 13.41 57.72 29.35"/><polygon class="cls-1" points="47.14 38.73 28.82 26.52 25.99 37.99 47.14 38.73"/><path class="cls-1" d="M234,301.56c-1.85-.17-3.64-.23-5.39-.52-3.43-.57-6.84-1.32-10.27-1.91a27.77,27.77,0,0,0-12.2.35l-.3.06-9.93-17.22c1.19-1.56,2.41-3,3.45-4.55,2.23-3.32,3.45-7.1,4.73-10.84.85-2.5,1.75-5,2.71-7.43a13.19,13.19,0,0,1,1.48-2.52,32.4,32.4,0,0,0,1.7,6.8,103.66,103.66,0,0,0,9,18.67,93.45,93.45,0,0,0,9.95,14.08C230.46,298.25,232.19,299.78,234,301.56Z" transform="translate(-128.14 -157.95)"/><path class="cls-1" d="M216.29,273.08c-.74-1.61-1.52-3.21-2.23-4.85a43.94,43.94,0,0,1-3.25-9.53,13.22,13.22,0,0,1-.22-2.88c0-1.36,1-2,2.16-1.36a13.43,13.43,0,0,1,2.89,2,52.85,52.85,0,0,1,7.64,9.17,115.53,115.53,0,0,1,13.1,24.26,26,26,0,0,1,2,7.56,6.65,6.65,0,0,1,0,1.34c-.16,1.17-1,1.72-2,1.19a13.47,13.47,0,0,1-3.07-2.1,62.38,62.38,0,0,1-9.33-11.7s0,0,0-.07q5-5.13,2.1-10C224.06,272.82,220.75,271.78,216.29,273.08Z" transform="translate(-128.14 -157.95)"/><path class="cls-1" d="M194.1,283.59l9.63,16.68-.43.29c-2.27,1.32-4.52,2.64-6.8,3.93a9.65,9.65,0,0,1-10.17-16.39C188.85,286.54,191.46,285.11,194.1,283.59Z" transform="translate(-128.14 -157.95)"/><path class="cls-1" d="M195,307.74l8.34-4.63c.25.88.47,1.74.75,2.58a25.63,25.63,0,0,0,5.11,8.88,4.63,4.63,0,0,1-2.52,7.72,4.18,4.18,0,0,1-3.9-1A25,25,0,0,1,195,307.75S195,307.66,195,307.74Z" transform="translate(-128.14 -157.95)"/><path class="cls-8" d="M236.92,271.69c-.3-.27-.76-.49-.89-.83a1.9,1.9,0,0,1,.22-1.15c.06-.17.32-.26.5-.37,2.76-1.59,5.51-3.19,8.27-4.77a3,3,0,0,1,.57-.28.9.9,0,0,1,1.2.46,2.43,2.43,0,0,1-.08,1.3c-.05.17-.34.3-.54.42l-8.27,4.78C237.64,271.4,237.35,271.49,236.92,271.69Z" transform="translate(-128.14 -157.95)"/><path class="cls-9" d="M244.81,280.89c-1.5.08-3,.17-4.52.21a1.2,1.2,0,0,1-1.51-1.4c0-.51.49-.77,1-.79,3.32-.15,6.64-.3,10-.43.87,0,1.37.37,1.39,1s-.46,1.12-1.32,1.16c-1.51.08-3,.13-4.52.19h-.5Z" transform="translate(-128.14 -157.95)"/><path class="cls-10" d="M236.9,254.52a8.9,8.9,0,0,1-.44.94l-5.24,8.23c-.47.72-1.08.91-1.66.53s-.65-1-.2-1.73l5.28-8.29c.33-.51.79-.84,1.36-.58C236.37,253.79,236.61,254.22,236.9,254.52Z" transform="translate(-128.14 -157.95)"/><path class="cls-3" d="M321.82,251.16h-4.94v6.53h5.79l-.55,4.05h-9.85v-24h9.81v4.07h-5.2v5.25h4.94Z" transform="translate(-128.14 -157.95)"/><path class="cls-3" d="M328,242.84c.53,4,1.23,10.34,1.61,14h.1c.31-3.77,1.22-9.72,1.76-14h4.6l-3.68,18.9H326.7L323,242.84Z" transform="translate(-128.14 -157.95)"/><path class="cls-3" d="M341.65,253.47v2.76c0,1.21.29,2.1,1.33,2.1s1.31-1,1.31-2.16v-.43h4.47V256c0,2.54-.77,6-5.76,6s-5.91-2.76-5.91-6.64V249c0-3.11,1.43-6.45,5.92-6.45,4,0,5.81,2.38,5.81,6.42v4.5Zm2.72-3.27v-1.86c0-1.46-.31-2.13-1.33-2.13s-1.36.64-1.36,2.13v1.86Z" transform="translate(-128.14 -157.95)"/><path class="cls-3" d="M351,248.5c0-3.37,0-5-.05-5.66h4.42a11.41,11.41,0,0,1,.16,1.6,3.84,3.84,0,0,1,3.53-1.89c2.54,0,3.87,1.63,3.87,4.91v14.28h-4.61V248.43c0-1.28-.4-1.89-1.26-1.89-1,0-1.45.59-1.45,2.46v12.74H351Z" transform="translate(-128.14 -157.95)"/><path class="cls-3" d="M364.21,242.84h1.88v-4.29h4.57v4.29h2.15v4.07h-2.15v9.83c0,.86.12,1.38,1.18,1.38a3.54,3.54,0,0,0,.83-.08v3.57A7.88,7.88,0,0,1,370,262c-2.8,0-4-1-4-4.29V246.91h-1.83Z" transform="translate(-128.14 -157.95)"/><path class="cls-3" d="M378.41,255.62v.88c0,1.05.21,1.91,1.17,1.91.71,0,1.06-.45,1.06-1.46s-.24-1.74-2.48-3.16c-2.82-1.79-4-3.15-4-5.89,0-3.46,1.89-5.35,5.4-5.35,4.22,0,5.38,2.32,5.38,5.52v.8h-4.25v-1.14c0-1.2-.33-1.62-1-1.62s-1,.51-1,1.37.39,1.33,2,2.33c3.5,2.17,4.55,3.69,4.55,6.5,0,3.7-1.64,5.73-5.72,5.73-4.83,0-5.58-3-5.58-5.72v-.7Z" transform="translate(-128.14 -157.95)"/><path class="cls-3" d="M403,257.42c0,1.69,0,3.49.11,4.32h-4.29a9,9,0,0,1-.28-1.39,3.47,3.47,0,0,1-3.23,1.66c-2.88,0-4-2.65-4-5.54v-.35c0-4.84,3.28-6,6.79-6h.31v-2.2c0-1.27-.18-1.85-1-1.85s-1.06.63-1.06,1.73v.44h-4.44V248c0-3.29,1.5-5.4,5.69-5.4,3.74,0,5.46,1.77,5.46,5.07Zm-4.57-4.07H398c-1.35,0-2.24.6-2.24,2.57v.24c0,1.31.43,2,1.32,2s1.36-.65,1.36-2.58Z" transform="translate(-128.14 -157.95)"/><path class="cls-3" d="M405.69,248.5c0-3.37,0-5-.05-5.66h4.42a15.47,15.47,0,0,1,.16,1.6,3.81,3.81,0,0,1,3.53-1.89c2.53,0,3.86,1.63,3.86,4.91v14.28H413V248.43c0-1.28-.4-1.89-1.25-1.89-1.05,0-1.45.59-1.45,2.46v12.74h-4.61Z" transform="translate(-128.14 -157.95)"/><path class="cls-3" d="M431.81,236.74v19.71c0,2.69,0,4.3.05,5.29h-4.37c-.07-.49-.15-1.34-.16-1.72a3.52,3.52,0,0,1-3.44,2c-3,0-4-2.32-4-6v-7.78c0-3.14,1.14-5.67,4.34-5.67a3.23,3.23,0,0,1,3,1.34v-7.15Zm-7.31,11.82V256c0,1.29.32,2,1.32,2s1.38-1,1.38-2.59v-6.34c0-1.68-.2-2.58-1.35-2.58C424.86,246.54,424.5,247.25,424.5,248.56Z" transform="translate(-128.14 -157.95)"/><path class="cls-3" d="M440.86,261.74l-2.71-24H443c.34,4.28.82,12.4.94,16.18h.16c.48-4.69,1-11.21,1.56-16.18h4c.5,4.68,1.05,11.12,1.5,16.1h.18c.21-4.47.65-12.13,1-16.1h4.55l-3,24H449c-.47-4.2-1.07-8.83-1.49-13.79h-.16c-.47,4.88-1.18,9.46-1.69,13.79Z" transform="translate(-128.14 -157.95)"/><path class="cls-3" d="M469.53,248.76v7.1c0,4.18-2.24,6.18-6,6.18s-5.91-2.05-5.91-6.18v-7.28c0-4.22,2.56-6,6-6C467.17,242.55,469.53,244.48,469.53,248.76Zm-7.31-.4v7.76c0,1.23.34,2.06,1.37,2.06s1.33-.79,1.33-2.11v-7.74c0-1.14-.28-2-1.35-2S462.22,247.08,462.22,248.36Z" transform="translate(-128.14 -157.95)"/><path class="cls-3" d="M471.8,249.26c0-3.24,0-4.79-.05-6.42h4.4c0,.38.13,2,.13,2.82a4,4,0,0,1,4-3.11v5.55c-2.22,0-3.82.41-3.82,3.61v10H471.8Z" transform="translate(-128.14 -157.95)"/><path class="cls-3" d="M486.46,250.67h.11c.74-2.15,2-5.73,2.74-7.83h4.78l-3.2,7,3.46,11.94h-5l-1.74-7.56-1.19,2.48v5.08h-4.54v-25h4.54Z" transform="translate(-128.14 -157.95)"/><path class="cls-3" d="M499.46,255.62v.88c0,1.05.22,1.91,1.18,1.91.71,0,1.06-.45,1.06-1.46s-.25-1.74-2.48-3.16c-2.82-1.79-4-3.15-4-5.89,0-3.46,1.89-5.35,5.39-5.35,4.22,0,5.39,2.32,5.39,5.52v.8H501.8v-1.14c0-1.2-.33-1.62-1-1.62s-1,.51-1,1.37.38,1.33,2,2.33c3.5,2.17,4.55,3.69,4.55,6.5,0,3.7-1.64,5.73-5.72,5.73-4.84,0-5.58-3-5.58-5.72v-.7Z" transform="translate(-128.14 -157.95)"/><path class="cls-3" d="M512.8,236.74v7.57a3.85,3.85,0,0,1,3.51-1.76c2.92,0,3.83,2.12,3.83,4.84v14.35H515.5V248.53c0-1.14-.22-2-1.28-2s-1.42.63-1.42,2.43v12.77h-4.61v-25Z" transform="translate(-128.14 -157.95)"/><path class="cls-3" d="M534.35,248.76v7.1c0,4.18-2.24,6.18-6,6.18s-5.9-2.05-5.9-6.18v-7.28c0-4.22,2.56-6,6-6C532,242.55,534.35,244.48,534.35,248.76Zm-7.32-.4v7.76c0,1.23.35,2.06,1.38,2.06s1.32-.79,1.32-2.11v-7.74c0-1.14-.27-2-1.35-2S527,247.08,527,248.36Z" transform="translate(-128.14 -157.95)"/><path class="cls-3" d="M541.23,260.47v7.41h-4.61V248.26c0-2.54,0-4.47,0-5.42H541a16.41,16.41,0,0,1,.16,1.79,3.7,3.7,0,0,1,3.53-2.08c2.63,0,3.85,1.78,3.85,5.32v8.2c0,3.86-1.16,6-4.36,6A3.32,3.32,0,0,1,541.23,260.47Zm2.7-4.6v-7.36c0-1.3-.39-2-1.27-2s-1.43.53-1.43,2.28v6.73c0,1.57.29,2.5,1.31,2.5S543.93,257.3,543.93,255.87Z" transform="translate(-128.14 -157.95)"/><path class="cls-3" d="M554.66,255.62v.88c0,1.05.22,1.91,1.18,1.91.7,0,1.06-.45,1.06-1.46s-.25-1.74-2.48-3.16c-2.82-1.79-3.95-3.15-3.95-5.89,0-3.46,1.89-5.35,5.39-5.35,4.22,0,5.39,2.32,5.39,5.52v.8H557v-1.14c0-1.2-.33-1.62-1-1.62s-1,.51-1,1.37.38,1.33,2,2.33c3.5,2.17,4.55,3.69,4.55,6.5,0,3.7-1.64,5.73-5.72,5.73-4.84,0-5.58-3-5.58-5.72v-.7Z" transform="translate(-128.14 -157.95)"/><path class="cls-3" d="M312.1,299.08h3.23c2.82,0,3.79,1.28,3.79,4.12v5.14c0,2.36-.5,4.42-3.61,4.42H312.1Zm2.63,11.56h.51c1,0,1.21-.67,1.21-1.74v-6.13c0-1-.23-1.56-1.23-1.56h-.49Z" transform="translate(-128.14 -157.95)"/><path class="cls-3" d="M320.53,302h2.64v10.8h-2.64Zm0-3.48h2.64v2.38h-2.64Z" transform="translate(-128.14 -157.95)"/><path class="cls-3" d="M326.82,309.27v.5c0,.6.13,1.09.67,1.09s.61-.25.61-.83-.14-1-1.42-1.81c-1.61-1-2.25-1.8-2.25-3.37a2.76,2.76,0,0,1,3.08-3.05c2.41,0,3.08,1.32,3.08,3.15v.46h-2.43v-.65c0-.69-.19-.92-.59-.92s-.57.29-.57.78.22.76,1.15,1.33c2,1.24,2.6,2.1,2.6,3.71,0,2.11-.93,3.28-3.27,3.28-2.76,0-3.18-1.72-3.18-3.28v-.39Z" transform="translate(-128.14 -157.95)"/><path class="cls-3" d="M338.1,308.94v.38c0,2.06-.56,3.62-3.24,3.62s-3.16-1.5-3.16-3.86v-3.71c0-1.87.7-3.57,3.28-3.57,2.79,0,3.14,1.87,3.14,3.35v.53h-2.53V305c0-.72-.1-1.12-.62-1.12s-.64.41-.64,1.1v4.7c0,.63.11,1.1.64,1.1s.62-.46.62-1.17v-.7Z" transform="translate(-128.14 -157.95)"/><path class="cls-3" d="M346,305.35v4.06c0,2.38-1.28,3.53-3.44,3.53s-3.37-1.18-3.37-3.53v-4.16a3.11,3.11,0,0,1,3.41-3.45C344.65,301.8,346,302.9,346,305.35Zm-4.18-.23v4.43c0,.7.2,1.18.79,1.18s.75-.45.75-1.2V305.1c0-.65-.15-1.12-.77-1.12S341.82,304.39,341.82,305.12Z" transform="translate(-128.14 -157.95)"/><path class="cls-3" d="M349.39,302c.3,2.27.71,5.91.92,8h.06c.17-2.16.69-5.56,1-8H354l-2.1,10.8h-3.24L346.57,302Z" transform="translate(-128.14 -157.95)"/><path class="cls-3" d="M357.2,308v1.57c0,.7.16,1.2.76,1.2s.75-.54.75-1.23v-.24h2.55v.15c0,1.44-.44,3.45-3.29,3.45s-3.38-1.58-3.38-3.8v-3.66c0-1.77.82-3.68,3.39-3.68,2.27,0,3.32,1.36,3.32,3.67V308Zm1.55-1.87v-1.06c0-.84-.18-1.22-.76-1.22s-.78.36-.78,1.22v1.06Z" transform="translate(-128.14 -157.95)"/><path class="cls-3" d="M362.54,305.63c0-1.85,0-2.73,0-3.67H365c0,.22.08,1.13.08,1.62a2.26,2.26,0,0,1,2.25-1.78V305c-1.26,0-2.18.23-2.18,2.06v5.73h-2.63Z" transform="translate(-128.14 -157.95)"/><path class="cls-3" d="M377.85,302.74v6.35c0,2.71-1.27,3.88-3.67,3.88s-3.43-1.19-3.43-3.85v-6.45c0-2.64,1.45-3.8,3.56-3.8S377.85,300,377.85,302.74Zm-4.44-.3v7c0,.84.29,1.29.88,1.29s.89-.4.89-1.3v-7c0-.85-.24-1.29-.9-1.29S373.41,301.54,373.41,302.44Z" transform="translate(-128.14 -157.95)"/><path class="cls-3" d="M386,309.34c0,1.8,0,2.82,0,3.42h-2.54a7.15,7.15,0,0,1-.08-.94,2.08,2.08,0,0,1-2.05,1.12c-1.06,0-2.15-.52-2.15-2.79V302h2.64v7.56c0,.75.21,1.13.72,1.13s.8-.38.8-1.41V302H386Z" transform="translate(-128.14 -157.95)"/><path class="cls-3" d="M387.52,305.63c0-1.85,0-2.73,0-3.67H390c0,.22.08,1.13.08,1.62a2.27,2.27,0,0,1,2.26-1.78V305c-1.27,0-2.18.23-2.18,2.06v5.73h-2.64Z" transform="translate(-128.14 -157.95)"/><path class="cls-3" d="M398.53,299.08V309.5c0,.8.24,1.23.84,1.23s.83-.49.83-1.23V299.08h2.66v10.25c0,2.43-1.11,3.62-3.53,3.62s-3.45-1.15-3.45-3.64V299.08Z" transform="translate(-128.14 -157.95)"/><path class="cls-3" d="M407,312v4.24h-2.63V305.06c0-1.45,0-2.55,0-3.1h2.53a6.55,6.55,0,0,1,.09,1,2.12,2.12,0,0,1,2-1.19c1.51,0,2.2,1,2.2,3v4.68c0,2.21-.66,3.42-2.49,3.42A1.92,1.92,0,0,1,407,312Zm1.55-2.63v-4.2c0-.75-.23-1.14-.73-1.14s-.82.3-.82,1.31v3.84c0,.9.17,1.43.75,1.43S408.5,310.22,408.5,309.41Z" transform="translate(-128.14 -157.95)"/><path class="cls-3" d="M418.69,308.94v.38c0,2.06-.56,3.62-3.24,3.62s-3.16-1.5-3.16-3.86v-3.71c0-1.87.7-3.57,3.27-3.57,2.8,0,3.15,1.87,3.15,3.35v.53h-2.53V305c0-.72-.11-1.12-.62-1.12s-.64.41-.64,1.1v4.7c0,.63.11,1.1.64,1.1s.62-.46.62-1.17v-.7Z" transform="translate(-128.14 -157.95)"/><path class="cls-3" d="M426.59,305.35v4.06c0,2.38-1.28,3.53-3.44,3.53s-3.38-1.18-3.38-3.53v-4.16a3.12,3.12,0,0,1,3.42-3.45C425.24,301.8,426.59,302.9,426.59,305.35Zm-4.18-.23v4.43c0,.7.2,1.18.78,1.18s.76-.45.76-1.2V305.1c0-.65-.15-1.12-.77-1.12S422.41,304.39,422.41,305.12Z" transform="translate(-128.14 -157.95)"/><path class="cls-3" d="M427.89,305.26c0-2.35,0-2.9,0-3.3h2.5a6.4,6.4,0,0,1,.09.88,2.09,2.09,0,0,1,1.9-1,1.68,1.68,0,0,1,1.75,1.08,2.42,2.42,0,0,1,2.09-1.08c1.41,0,2.2.9,2.2,2.78v8.18h-2.61V305c0-.62-.17-.95-.63-.95s-.71.39-.71,1.26v7.42h-2.62V305c0-.79-.24-1-.63-1-.55,0-.7.4-.7,1.21v7.47h-2.6Z" transform="translate(-128.14 -157.95)"/><path class="cls-3" d="M439.91,302h2.63v10.8h-2.63Zm0-3.48h2.63v2.38h-2.63Z" transform="translate(-128.14 -157.95)"/><path class="cls-3" d="M444.07,305.2c0-1.93,0-2.84,0-3.24h2.53a7.72,7.72,0,0,1,.09.92,2.17,2.17,0,0,1,2-1.08c1.44,0,2.2.93,2.2,2.81v8.15h-2.63v-7.6c0-.73-.23-1.08-.72-1.08s-.83.33-.83,1.4v7.28h-2.63Z" transform="translate(-128.14 -157.95)"/><path class="cls-3" d="M459,311.88c0,2.59-.25,4.55-3.57,4.55-2.53,0-3.22-1.45-3.22-2.89v-.05h2.64v0a.73.73,0,0,0,.73.82c.71,0,.81-.53.81-1.7v-1.21a1.86,1.86,0,0,1-1.82,1c-1.95,0-2.39-1.51-2.39-3.33V305c0-1.46.5-3.22,2.55-3.22a1.68,1.68,0,0,1,1.81,1.1,6.13,6.13,0,0,1,.1-.94H459c0,.69,0,1.71,0,3Zm-4.18-6.65V309c0,.86.19,1.26.73,1.26s.81-.45.81-1.48v-3.38c0-.65-.07-1.26-.72-1.26S454.82,304.41,454.82,305.23Z" transform="translate(-128.14 -157.95)"/><path class="cls-3" d="M468.64,306.72h-2.82v3.73h3.31l-.32,2.31h-5.62V299.08h5.6v2.33h-3v3h2.82Z" transform="translate(-128.14 -157.95)"/><path class="cls-3" d="M472.17,302c.3,2.27.71,5.91.92,8h.06c.17-2.16.69-5.56,1-8h2.62l-2.1,10.8h-3.25L469.34,302Z" transform="translate(-128.14 -157.95)"/><path class="cls-3" d="M480,308v1.57c0,.7.16,1.2.76,1.2s.75-.54.75-1.23v-.24H484v.15c0,1.44-.44,3.45-3.29,3.45s-3.38-1.58-3.38-3.8v-3.66c0-1.77.82-3.68,3.39-3.68,2.27,0,3.31,1.36,3.31,3.67V308Zm1.55-1.87v-1.06c0-.84-.18-1.22-.76-1.22s-.78.36-.78,1.22v1.06Z" transform="translate(-128.14 -157.95)"/><path class="cls-3" d="M485.32,305.2c0-1.93,0-2.84,0-3.24h2.52a6.08,6.08,0,0,1,.09.92,2.18,2.18,0,0,1,2-1.08c1.45,0,2.21.93,2.21,2.81v8.15H489.5v-7.6c0-.73-.23-1.08-.72-1.08s-.83.33-.83,1.4v7.28h-2.63Z" transform="translate(-128.14 -157.95)"/><path class="cls-3" d="M492.87,302h1.07v-2.45h2.62V302h1.22v2.33h-1.22v5.62c0,.49.07.79.67.79a2.36,2.36,0,0,0,.48-.05v2a4.66,4.66,0,0,1-1.52.22c-1.59,0-2.28-.57-2.28-2.46v-6.16h-1Z" transform="translate(-128.14 -157.95)"/><path class="cls-3" d="M501,309.27v.5c0,.6.13,1.09.67,1.09s.61-.25.61-.83-.14-1-1.42-1.81c-1.61-1-2.26-1.8-2.26-3.37a2.76,2.76,0,0,1,3.09-3.05c2.41,0,3.08,1.32,3.08,3.15v.46h-2.43v-.65c0-.69-.19-.92-.59-.92s-.57.29-.57.78.22.76,1.15,1.33c2,1.24,2.6,2.1,2.6,3.71,0,2.11-.94,3.28-3.27,3.28-2.76,0-3.18-1.72-3.18-3.28v-.39Z" transform="translate(-128.14 -157.95)"/><path class="cls-3" d="M367.66,334.91c0,1,0,2,.06,2.47h-2.45a6,6,0,0,1-.16-.8,2,2,0,0,1-1.84,1c-1.65,0-2.31-1.52-2.31-3.17v-.2c0-2.77,1.88-3.43,3.89-3.43H365v-1.26c0-.73-.1-1.05-.59-1.05s-.6.35-.6,1v.25h-2.54v-.16c0-1.88.86-3.09,3.25-3.09,2.14,0,3.12,1,3.12,2.9Zm-2.61-2.33h-.25c-.77,0-1.28.35-1.28,1.47v.14c0,.75.25,1.13.75,1.13s.78-.37.78-1.47Z" transform="translate(-128.14 -157.95)"/><path class="cls-3" d="M369.19,329.81c0-1.92,0-2.83,0-3.23h2.52a7.37,7.37,0,0,1,.09.91,2.2,2.2,0,0,1,2-1.08c1.45,0,2.21.93,2.21,2.81v8.16h-2.64v-7.61c0-.73-.23-1.08-.72-1.08s-.82.34-.82,1.41v7.28h-2.64Z" transform="translate(-128.14 -157.95)"/><path class="cls-3" d="M384.12,323.09v11.27c0,1.53,0,2.45,0,3h-2.5c0-.28-.08-.77-.09-1a2,2,0,0,1-2,1.15c-1.72,0-2.29-1.33-2.29-3.45v-4.45c0-1.79.64-3.24,2.47-3.24a1.83,1.83,0,0,1,1.7.77v-4.09Zm-4.18,6.76v4.25c0,.74.18,1.17.76,1.17s.78-.55.78-1.48v-3.62c0-1-.11-1.48-.77-1.48S379.94,329.1,379.94,329.85Z" transform="translate(-128.14 -157.95)"/><path class="cls-3" d="M389.29,337.38l-1.55-13.69h2.77c.2,2.45.47,7.09.54,9.25h.09c.28-2.68.61-6.41.9-9.25h2.26c.28,2.68.6,6.35.85,9.2h.11c.12-2.55.37-6.93.55-9.2h2.6l-1.73,13.69H394c-.27-2.4-.61-5.05-.85-7.88H393c-.27,2.79-.68,5.4-1,7.88Z" transform="translate(-128.14 -157.95)"/><path class="cls-3" d="M405.68,330V334c0,2.38-1.28,3.53-3.44,3.53s-3.38-1.17-3.38-3.53v-4.16a3.12,3.12,0,0,1,3.42-3.45C404.33,326.41,405.68,327.52,405.68,330Zm-4.18-.23v4.44c0,.7.2,1.18.78,1.18s.76-.46.76-1.21v-4.43c0-.65-.15-1.11-.77-1.11S401.5,329,401.5,329.73Z" transform="translate(-128.14 -157.95)"/><path class="cls-3" d="M407,330.24c0-1.84,0-2.73,0-3.66h2.51c0,.22.08,1.12.08,1.61a2.26,2.26,0,0,1,2.25-1.78v3.17c-1.27,0-2.18.24-2.18,2.07v5.73H407Z" transform="translate(-128.14 -157.95)"/><path class="cls-3" d="M415.35,331.05h.07c.42-1.23,1.14-3.27,1.56-4.47h2.73l-1.82,4,2,6.82H417l-1-4.32-.69,1.42v2.9h-2.59V323.09h2.59Z" transform="translate(-128.14 -157.95)"/><path class="cls-3" d="M422.78,333.88v.51c0,.59.13,1.09.68,1.09s.6-.26.6-.84-.14-1-1.41-1.8c-1.62-1-2.26-1.81-2.26-3.37a2.76,2.76,0,0,1,3.08-3.06c2.41,0,3.08,1.33,3.08,3.16V330h-2.43v-.66c0-.68-.19-.92-.58-.92s-.57.29-.57.78.22.76,1.15,1.33c2,1.24,2.59,2.11,2.59,3.71,0,2.12-.93,3.28-3.27,3.28-2.76,0-3.18-1.71-3.18-3.27v-.4Z" transform="translate(-128.14 -157.95)"/><path class="cls-3" d="M430.41,323.09v4.33a2.2,2.2,0,0,1,2-1c1.67,0,2.19,1.21,2.19,2.77v8.2H432v-7.55c0-.65-.13-1.14-.73-1.14s-.81.36-.81,1.39v7.3h-2.64V323.09Z" transform="translate(-128.14 -157.95)"/><path class="cls-3" d="M442.72,330V334c0,2.38-1.28,3.53-3.44,3.53s-3.37-1.17-3.37-3.53v-4.16a3.12,3.12,0,0,1,3.41-3.45C441.37,326.41,442.72,327.52,442.72,330Zm-4.18-.23v4.44c0,.7.2,1.18.79,1.18s.76-.46.76-1.21v-4.43c0-.65-.16-1.11-.78-1.11S438.54,329,438.54,329.73Z" transform="translate(-128.14 -157.95)"/><path class="cls-3" d="M446.65,336.65v4.24H444V329.68c0-1.45,0-2.56,0-3.1h2.53a6.41,6.41,0,0,1,.09,1,2.12,2.12,0,0,1,2-1.19c1.51,0,2.2,1,2.2,3v4.69c0,2.21-.66,3.41-2.49,3.41A1.9,1.9,0,0,1,446.65,336.65ZM448.2,334v-4.2c0-.75-.23-1.13-.73-1.13s-.82.3-.82,1.3v3.85c0,.89.17,1.42.75,1.42S448.2,334.84,448.2,334Z" transform="translate(-128.14 -157.95)"/><path class="cls-3" d="M454.33,333.88v.51c0,.59.12,1.09.67,1.09s.61-.26.61-.84-.14-1-1.42-1.8c-1.61-1-2.26-1.81-2.26-3.37a2.77,2.77,0,0,1,3.09-3.06c2.41,0,3.08,1.33,3.08,3.16V330h-2.44v-.66c0-.68-.18-.92-.58-.92s-.57.29-.57.78.22.76,1.15,1.33c2,1.24,2.6,2.11,2.6,3.71,0,2.12-.94,3.28-3.27,3.28-2.76,0-3.18-1.71-3.18-3.27v-.4Z" transform="translate(-128.14 -157.95)"/><path class="cls-1" d="M585.9,218.36c.44-1.51-.42-3-1.23-4.44a3.25,3.25,0,0,1,.11-3.7,8.46,8.46,0,0,0,1.57-6,2.41,2.41,0,0,1,1.31-2.5,11,11,0,0,0,4.79-5.09,3.1,3.1,0,0,1,2.18-1.36c2.22-.19,4.31-.53,6.07-2a2.87,2.87,0,0,1,3.54-.35,9.11,9.11,0,0,0,6.22.88,2.82,2.82,0,0,1,3,1.36,8.05,8.05,0,0,0,4.67,3.45,3,3,0,0,1,2.38,2.81,8.25,8.25,0,0,0,2.65,5.3,3,3,0,0,1,.72,3.41,8.69,8.69,0,0,0-.15,6,2.84,2.84,0,0,1-.86,3.26,9.08,9.08,0,0,0-3.06,5.49,2.73,2.73,0,0,1-2.24,2.34,8.84,8.84,0,0,0-5.26,3.46,3,3,0,0,1-3.46,1,8,8,0,0,0-5.75.64,2.88,2.88,0,0,1-3.31-.51,8.6,8.6,0,0,0-5.59-2.31,3,3,0,0,1-2.89-2.12,8.56,8.56,0,0,0-3.79-4.55C585.92,221.85,585.84,221.37,585.9,218.36ZM616,212.59a11.88,11.88,0,1,0-11.87,11.83A11.79,11.79,0,0,0,616,212.59Z" transform="translate(-128.14 -157.95)"/><path class="cls-11" d="M607.29,209.12c1.16,0,2.11,0,3.06,0,1.4,0,1.92.67,1.65,2.05-.39,2-.74,4.07-1.27,6.06-.15.56-.9,1.36-1.37,1.35-2.58,0-5.16-.23-7.74-.37-.75,0-1-.44-.89-1.1,0-.12,0-.24,0-.36,0-2.44-.37-4.87,1.84-6.88,1.31-1.19,2-3,3-4.56.43-.68.95-1.24,1.85-.83s.92,1.2.67,2S607.6,208.15,607.29,209.12Z" transform="translate(-128.14 -157.95)"/><path class="cls-12" d="M597.41,211.65c2.81-.33,2.81-.33,2.81,2.17,0,1.27,0,2.55,0,3.83,0,.73-.38,1-1,.82s-1.75.58-1.82-.67C597.32,215.78,597.41,213.75,597.41,211.65Z" transform="translate(-128.14 -157.95)"/></svg>