<svg id="Layer_1" data-name="Layer 1" xmlns="http://www.w3.org/2000/svg" viewBox="0 0 260.42 286.45"><title>allow down</title><path d="M548.34,423.34c-3.4-4.34-6.15-8.53-6.72-14.46-1.92-20-4.47-39.89-6.88-59.82-.77-6.3-1.84-12.57-2.83-18.84-.44-2.79-2-3.13-4.29-1.82-3.71,2.13-6.22,5.16-6.28,9.54-.19,14.72-.23,29.45-.31,44.18,0,3.13,0,6.27,0,10.22-2.21-3.14-3.75-5.71-5.64-8-13.8-16.63-27.59-33.27-41.55-49.77-8.55-10.11-17.4-20-26.12-29.93-1.9-2.17-2.15-4,.21-6.32,8.9-8.81,10.78-19.58,8.14-31.45a70.09,70.09,0,0,0-11.39-25c-27.56-39.17-65.38-64.57-109.89-80.56-11.49-4.12-23.57-6.54-36-6.08-5.4.2-8.16,2.74-9.14,8.44,1.4,0,2.73.08,4.05,0,8.6-.63,16.89.92,25.09,3.32,34.07,10,62.93,28.66,88.2,53.22,13.58,13.21,26,27.44,34.31,44.62a71.71,71.71,0,0,1,5.39,16.61c1.47,7-1.63,12.44-7,12.54-2.73.05-5.83-1.73-8.19-3.47-8.95-6.57-17.41-13.86-26.55-20.14-14.76-10.15-30.57-18.4-48.19-22.49-10.84-2.51-18.47.92-23.83,10.16-4.58,7.91-3.7,14.22,3.46,22a29.13,29.13,0,0,0,6.77,5.25c24.4,14.3,50.13,24,79,23a7.11,7.11,0,0,1,4.74,2.11q25.53,26.43,50.79,53.09c6,6.34,11.49,13.12,17.22,19.7l-.72.79c-7.57-3.11-15.05-6.44-22.71-9.28-10.16-3.74-20.39-7.34-30.73-10.5-3.68-1.12-7.94-1.7-11.11,2.06-5.88,7-5.12,13.53,2.51,18.55a101.27,101.27,0,0,0,11.73,6.59C471.75,404.8,499.4,418.63,525.7,435a81.17,81.17,0,0,0,12.42,6,7.91,7.91,0,0,0,5.4.19C549.32,438.9,552.19,428.27,548.34,423.34ZM409.92,296.48c-4.26-.82-8.61-1.32-12.77-2.5-17.58-5-34.38-11.85-48.84-23.31-3.35-2.65-5.64-6.65-8.41-10l1.31-1.84c5.21,1.45,10.63,2.4,15.61,4.43a201.37,201.37,0,0,1,52.32,31.42,7.66,7.66,0,0,0,1.29.72Z" transform="translate(-289.68 -155.14)"/></svg>